<svg width="287" height="20" viewBox="0 0 287 20" fill="none" xmlns="http://www.w3.org/2000/svg">
<path d="M8.24 17.73L7.81 17.22C7.17 17.86 6.56 18.5 5.56 18.5C3.98 18.5 4.11 16.82 4.11 15.67V7.94H7.68V7.1H4.11V2.63H3.27C3.04 4.57 1.89 6.53 0.00999832 7.32V7.93H1.87V16.19C1.87 18 2.2 19.84 4.45 19.84C6.01 19.84 7.28 18.82 8.25 17.72M19.39 19.56H25.05V18.82C23.34 18.62 23.34 18.46 23.34 16.07V11.4C23.34 8.75 22.8 6.81 20.13 6.81C18.57 6.81 16.76 7.75 15.61 8.8V0L11.2 1.45V2.19C13.01 2.32 13.37 2.22 13.37 4.43V16.06C13.37 18.46 13.37 18.61 11.66 18.81V19.55H17.35V18.81C15.62 18.61 15.62 18.45 15.62 16.06V9.86C16.54 9.04 17.71 8.15 19.04 8.15C20.75 8.15 21.11 9.6 21.11 11.39V16.06C21.11 18.46 21.11 18.61 19.4 18.81V19.55L19.39 19.56ZM31.2 11.58C31.25 9.85 32.15 7.65 34.31 7.65C36.47 7.65 37.29 9.82 37.14 11.58H31.2ZM31.07 12.55H39.72C39.72 9.54 37.53 6.81 34.34 6.81C30.77 6.81 28.5 10.18 28.5 13.44C28.5 16.93 31.1 19.84 34.67 19.84C36.76 19.84 38.55 18.59 39.62 16.83L39.19 16.42C38.19 17.8 36.72 18.74 35.01 18.74C31.82 18.74 31.08 15.04 31.08 12.54M65.16 19.56L67.2 14.99L66.28 14.58C64.19 17.56 62.23 18.71 58.63 18.71C57.86 18.71 56.77 18.61 56.77 17.71C56.77 17.3 56.97 16.56 57.08 16.18L60.14 4.63C60.57 3.05 60.91 1.72 62.97 1.72L63.2 0.88H56.09L55.86 1.72C56.7 1.72 57.95 1.8 57.95 2.94C57.95 3.45 57.69 4.32 57.57 4.8L54.66 15.79C54.23 17.37 53.89 18.7 51.83 18.7L51.6 19.54H65.17L65.16 19.56ZM92.33 1.73L92.58 0.89H86.77L86.57 1.73C87.23 1.73 88.48 1.81 88.48 2.95C88.48 3.46 88.23 4.33 88.1 4.81L86.42 11.14C85.58 14.33 84.81 18.61 80.61 18.61C78.37 18.61 76.83 17.28 76.83 14.96C76.83 13.81 77.29 12.26 77.6 11.13L79.31 4.63C79.74 3.05 80.07 1.72 82.14 1.72L82.4 0.88H75.34L75.11 1.72C75.9 1.72 77.15 1.8 77.15 2.94C77.15 3.45 76.9 4.32 76.77 4.8L75.06 11.13C74.75 12.28 74.4 13.6 74.4 14.8C74.4 18.19 77 19.82 80.14 19.82C82.41 19.82 84.35 19 85.67 17.09C86.74 15.51 87.33 12.96 87.81 11.12L89.52 4.62C89.88 3.24 90.28 1.71 92.35 1.71M114.75 1.73L114.98 0.89H109.27L109.04 1.73H109.3C109.84 1.73 110.32 1.81 110.32 2.44C110.32 3 109.84 3.56 109.48 3.97L105.81 8.28L104.33 4.02C104.18 3.64 104.05 3.28 104.05 2.85C104.05 1.93 104.66 1.7 105.45 1.7L105.83 1.73L106.06 0.89H99.07L98.87 1.73C99.79 1.76 100.37 1.96 100.91 2.75C101.37 3.49 101.78 4.56 102.06 5.4L103.85 10.19L99.36 15.44C98.11 16.89 96.76 18.7 94.64 18.7L94.41 19.54H100.84L101.07 18.7H100.81C100.33 18.7 99.33 18.7 99.33 18.01C99.33 17.47 100.2 16.53 100.53 16.1L104.33 11.59L105.99 16.05C106.17 16.51 106.4 17.22 106.4 17.68C106.4 18.57 105.56 18.7 104.82 18.7H104.54L104.31 19.54H111.58L111.81 18.7H111.58C109.67 18.7 109.21 17.5 108.62 15.95L106.27 9.65L110.58 4.58C111.7 3.23 112.83 1.77 114.76 1.72M135.51 5.59L136.51 5.41L135.95 0.9H123.04L122.81 1.74C123.65 1.74 124.9 1.82 124.9 2.96C124.9 3.47 124.65 4.34 124.52 4.82L121.61 15.79C121.18 17.37 120.84 18.7 118.78 18.7L118.55 19.57H132.73L134.82 15.06L134.08 14.55C131.73 17.48 130.1 18.73 126.33 18.73C125.36 18.73 123.96 18.6 123.96 17.28C123.96 16.77 124.09 16.29 124.22 15.83L125.65 10.4H126.62C127.41 10.5 129.4 10.4 129.4 12.75C129.4 13.16 129.32 13.54 129.2 13.92H130.37L132.33 6.57H131.16C130.57 8.69 129.14 9.17 127.13 9.17H125.98L127.18 4.63C127.69 2.67 128 1.75 130.19 1.75C133 1.75 134.6 2.82 135.52 5.6M163.26 14.61C163.26 17.75 160.71 18.72 157.96 18.72C155.97 18.72 155.54 17.95 155.54 16.17V10.13H156.94C160.1 10.13 163.26 10.79 163.26 14.62M157.01 9.28H155.53V4.36C155.53 2.6 155.84 1.73 157.83 1.73C160.15 1.73 162.45 2.73 162.45 5.38C162.45 8.75 159.8 9.28 157.02 9.28M159.68 9.79V9.71C162.38 9.33 165.14 8.43 165.11 5.2C165.08 0.71 159.35 0.89 156.18 0.89H150.65V1.73C152.66 1.73 153 2.42 153 5.22V15.22C153 18.05 152.67 18.71 150.65 18.71V19.55H158.76C161.95 19.55 166.18 18.45 166.18 14.5C166.18 11.16 162.51 9.86 159.68 9.78M192.05 1.73V0.89H186.21V1.73C188.17 1.73 188.51 2.42 188.51 5.22V12.18C188.51 15.62 188.05 18.81 183.82 18.78C179.82 18.81 179.15 15.75 179.15 12.38V5.21C179.15 2.4 179.48 1.72 181.6 1.72V0.88H174.38V1.72C176.29 1.72 176.62 2.41 176.62 5.21V13.83C176.62 17.78 179.19 19.82 183.07 19.82C187.61 19.82 189.68 17.6 189.68 13.09V5.21C189.68 2.4 190.01 1.72 192.05 1.72M205.9 9.62H204.57V4.52C204.57 2.61 204.62 1.74 206.76 1.74C209.05 1.74 211.3 3.04 211.3 5.57C211.3 8.5 208.47 9.8 205.89 9.63M211.61 19.56H215.84V18.72C213.78 18.8 213.55 17.95 212.6 16.32L209.18 10.22C211.63 9.92 213.97 8.15 213.97 5.55C213.97 1.9 210.14 0.88 207.16 0.88H199.66V1.72C202.16 1.72 202.03 3.2 202.03 5.27V15.22C202.03 18.05 201.67 18.71 199.66 18.71V19.55H206.93V18.71C204.92 18.71 204.56 18.05 204.56 15.22V10.45H206.37L211.6 19.55L211.61 19.56ZM227.06 16.14V10.25H228.11C230.12 10.12 232.32 10.28 232.29 13.54H233.03V6.22H232.31C232.13 8.97 230.5 9.41 228.1 9.41H227.05V4.64C227.05 2.14 227.2 1.73 229.8 1.73C233.55 1.73 234.39 2.65 236.63 5.63L237.27 5.25L235.48 0.89H222.14V1.73C224.15 1.73 224.51 2.42 224.51 5.22V15.22C224.51 18.05 224.15 18.71 222.14 18.71V19.55H235.81L237.7 14.71L237.09 14.45C234.54 17.66 233.8 18.71 229.64 18.71C227.32 18.71 227.04 18.2 227.04 16.13M255.37 11.63H249.63L252.51 3.06L255.37 11.63ZM254.73 19.56H262.23V18.72C261.59 18.64 261 18.46 260.57 17.98C259.88 17.24 259.22 15.12 258.89 14.13L254.25 0.26L251.85 0.9L247.21 14.83C246.62 16.59 245.93 18.71 243.74 18.73V19.57H250.27V18.73C249.23 18.73 247.87 18.55 247.87 17.25C247.87 16.51 248.64 14.52 248.89 13.78L249.22 12.81H255.72L256.77 15.95C256.92 16.33 257.2 17.17 257.2 17.58C257.2 18.91 255.59 18.65 254.73 18.73V19.57V19.56ZM286.02 1.73V0.89H280.18V1.73C282.14 1.73 282.48 2.42 282.48 5.22V12.18C282.48 15.62 282.02 18.81 277.79 18.78C273.79 18.81 273.12 15.75 273.12 12.38V5.21C273.12 2.4 273.45 1.72 275.57 1.72V0.88H268.35V1.72C270.26 1.72 270.59 2.41 270.59 5.21V13.83C270.59 17.78 273.17 19.82 277.04 19.82C281.58 19.82 283.65 17.6 283.65 13.09V5.21C283.65 2.4 283.98 1.72 286.02 1.72" fill="#51462D"/>
</svg>
